<svg width="34" height="34" viewBox="0 0 34 34" fill="none" xmlns="http://www.w3.org/2000/svg">
<path fill-rule="evenodd" clip-rule="evenodd" d="M24.7526 20.3746C24.3304 20.1635 22.2606 19.1463 21.8753 19.0046C21.49 18.8644 21.2095 18.795 20.9276 19.2171C20.6471 19.6365 19.841 20.5856 19.5959 20.8661C19.3494 21.1481 19.1043 21.1821 18.6835 20.9724C18.2628 20.7599 16.9056 20.3165 15.2977 18.8828C14.0468 17.7665 13.201 16.3881 12.956 15.9659C12.7109 15.5451 12.9291 15.3171 13.1401 15.1074C13.33 14.919 13.5609 14.6158 13.772 14.3707C13.983 14.1242 14.0525 13.9486 14.1927 13.6666C14.3344 13.3861 14.2635 13.1411 14.1573 12.93C14.0525 12.7189 13.211 10.6463 12.8596 9.80339C12.5182 8.98314 12.1711 9.09506 11.9133 9.08089C11.6668 9.06956 11.3863 9.06672 11.1058 9.06672C10.8253 9.06672 10.3691 9.17156 9.9838 9.59372C9.59705 10.0145 8.51047 11.0331 8.51047 13.1056C8.51047 15.1768 10.0178 17.1786 10.2289 17.4605C10.44 17.741 13.1968 21.9938 17.4199 23.8171C18.4257 24.2506 19.2091 24.5098 19.8197 24.7025C20.8284 25.0241 21.7464 24.9787 22.4717 24.8696C23.2792 24.7492 24.9622 23.8511 25.3136 22.8679C25.6635 21.8847 25.6635 21.0418 25.5586 20.8661C25.4538 20.6905 25.1733 20.5856 24.7511 20.3746H24.7526ZM17.0714 30.8621H17.0657C14.5574 30.8626 12.0952 30.1883 9.93705 28.91L9.42705 28.6068L4.12588 29.998L5.54113 24.83L5.20822 24.3001C3.80591 22.068 3.0638 19.4846 3.06763 16.8485C3.07047 9.12764 9.35197 2.84614 17.077 2.84614C20.817 2.84614 24.3332 4.30531 26.9767 6.95164C28.2806 8.25013 29.314 9.79428 30.0173 11.4947C30.7205 13.1952 31.0796 15.0183 31.0737 16.8584C31.0709 24.5792 24.7894 30.8621 17.0714 30.8621V30.8621ZM28.9884 4.94139C27.4275 3.3702 25.5703 2.1244 23.5244 1.27619C21.4786 0.427982 19.2847 -0.00577468 17.07 5.80515e-05C7.78513 5.80515e-05 0.225799 7.55797 0.222966 16.8471C0.218663 19.8033 0.994163 22.7084 2.47122 25.2691L0.0812988 34.0001L9.01197 31.6569C11.4825 33.0029 14.2509 33.7082 17.0643 33.7082H17.0714C26.3562 33.7082 33.9156 26.1503 33.9184 16.8598C33.9252 14.6459 33.493 12.4527 32.6468 10.4069C31.8006 8.36118 30.5571 6.50351 28.9884 4.94139" fill="white" fill-opacity="0.86"/>
</svg>
